ffmpeg started on 2025-06-27 at 09:58:24
Report written to "D:\Convert\FFMetrics\reports\ssim_report-6.txt"
Log level: 32
Command line:
ffmpeg -hide_banner -nostdin -i "G:\\\xc0\xed\xe8\xec\xe5\\[\xd2\xee\xef-4]\\\xd2\xee\xea\xe8\xe9\xf1\xea\xe8\xe9 \xc3\xf3\xeb\xfc\\\xd2\xc2-4\\Tokyo_Ghoul_ Jack_[OVA]_[AniLibria_Tv]_[BD-Rip_720p]_HEVC.mkv" -i "G:\\\xc0\xed\xe8\xec\xe5\\[\xd2\xee\xef-4]\\\xd2\xee\xea\xe8\xe9\xf1\xea\xe8\xe9 \xc3\xf3\xeb\xfc\\\xd2\xc2-4\\Tokyo_Ghoul_ Jack_[OVA]_[AniLibria_Tv]_[BD-Rip_720p].mkv" -lavfi "[0:v]settb=AVTB,setpts=PTS-STARTPTS,format=pix_fmts=yuv420p10,fps=24000/1001,scale=1280:720:flags=bicubic[main];[1:v]settb=AVTB,setpts=PTS-STARTPTS,format=pix_fmts=yuv420p,fps=24000/1001,scale=1280:720:flags=bicubic[ref];[main][ref]ssim=eof_action=endall:stats_file='D\\:/Convert/FFMetrics/logs/ssim_logfile-6.txt'" -f null -
Input #0, matroska,webm, from 'G:\Аниме\[Топ-4]\Токийский Гуль\ТВ-4\Tokyo_Ghoul_ Jack_[OVA]_[AniLibria_Tv]_[BD-Rip_720p]_HEVC.mkv':
  Metadata:
    ENCODER         : Lavf61.7.100
  Duration: 00:30:02.34, start: -0.021000, bitrate: 750 kb/s
  Stream #0:0(jpn): Video: hevc (Main 10), yuv420p10le(tv, bt709, progressive), 1280x720 [SAR 1:1 DAR 16:9], 23.98 fps, 23.98 tbr, 1k tbn (default) (forced)
      Metadata:
        title           : Original
        ENCODER         : Lavc61.19.100 libx265
        BPS             : 552223
        DURATION        : 00:30:02.342708333
        NUMBER_OF_FRAMES: 43213
        NUMBER_OF_BYTES : 124412053
        _STATISTICS_WRITING_APP: mkvpropedit v66.0.0 ('Josie') 64-bit
        _STATISTICS_WRITING_DATE_UTC: 2025-06-26 12:56:19
        _STATISTICS_TAGS: BPS DURATION NUMBER_OF_FRAMES NUMBER_OF_BYTES
  Stream #0:1(rus): Audio: aac (LC), 48000 Hz, stereo, fltp (default) (forced)
      Metadata:
        title           : Sedrix & Lupin & HectoR & Reni & Say & Silv
        ENCODER         : Lavc61.19.100 aac
        BPS             : 194049
        DURATION        : 00:30:02.304000000
        NUMBER_OF_FRAMES: 84484
        NUMBER_OF_BYTES : 43716945
        _STATISTICS_WRITING_APP: mkvpropedit v66.0.0 ('Josie') 64-bit
        _STATISTICS_WRITING_DATE_UTC: 2025-06-26 12:56:19
        _STATISTICS_TAGS: BPS DURATION NUMBER_OF_FRAMES NUMBER_OF_BYTES
  Stream #0:2(rus): Subtitle: ass (ssa) (default) (forced)
      Metadata:
        title           : Надписи
        BPS             : 2
        DURATION        : 00:28:55.400000000
        NUMBER_OF_FRAMES: 5
        NUMBER_OF_BYTES : 624
        _STATISTICS_WRITING_APP: mkvpropedit v66.0.0 ('Josie') 64-bit
        _STATISTICS_WRITING_DATE_UTC: 2025-06-26 12:56:19
        _STATISTICS_TAGS: BPS DURATION NUMBER_OF_FRAMES NUMBER_OF_BYTES
  Stream #0:3(rus): Subtitle: ass (ssa)
      Metadata:
        title           : Субтитры
        BPS             : 114
        DURATION        : 00:28:55.400000000
        NUMBER_OF_FRAMES: 366
        NUMBER_OF_BYTES : 24797
        _STATISTICS_WRITING_APP: mkvpropedit v66.0.0 ('Josie') 64-bit
        _STATISTICS_WRITING_DATE_UTC: 2025-06-26 12:56:19
        _STATISTICS_TAGS: BPS DURATION NUMBER_OF_FRAMES NUMBER_OF_BYTES
Input #1, matroska,webm, from 'G:\Аниме\[Топ-4]\Токийский Гуль\ТВ-4\Tokyo_Ghoul_ Jack_[OVA]_[AniLibria_Tv]_[BD-Rip_720p].mkv':
  Metadata:
    encoder         : libebml v1.4.2 + libmatroska v1.6.4
    creation_time   : 2024-12-27T07:34:52.000000Z
  Duration: 00:30:02.34, start: 0.000000, bitrate: 2508 kb/s
  Stream #1:0(jpn): Video: h264 (Main), yuv420p(progressive), 1280x720 [SAR 1:1 DAR 16:9], 23.98 fps, 23.98 tbr, 1k tbn (default) (forced)
      Metadata:
        title           : Original
        BPS             : 2313811
        DURATION        : 00:30:02.343000000
        NUMBER_OF_FRAMES: 43213
        NUMBER_OF_BYTES : 521285299
        _STATISTICS_WRITING_APP: mkvmerge v66.0.0 ('Josie') 64-bit
        _STATISTICS_WRITING_DATE_UTC: 2024-12-27 07:34:52
        _STATISTICS_TAGS: BPS DURATION NUMBER_OF_FRAMES NUMBER_OF_BYTES
  Stream #1:1(rus): Audio: aac (LC), 48000 Hz, stereo, fltp (default) (forced)
      Metadata:
        title           : Sedrix & Lupin & HectoR & Reni & Say & Silv
        BPS             : 192093
        DURATION        : 00:30:02.304000000
        NUMBER_OF_FRAMES: 84483
        NUMBER_OF_BYTES : 43276369
        _STATISTICS_WRITING_APP: mkvmerge v66.0.0 ('Josie') 64-bit
        _STATISTICS_WRITING_DATE_UTC: 2024-12-27 07:34:52
        _STATISTICS_TAGS: BPS DURATION NUMBER_OF_FRAMES NUMBER_OF_BYTES
  Stream #1:2(rus): Subtitle: ass (ssa) (default) (forced)
      Metadata:
        title           : Надписи
        BPS             : 2
        DURATION        : 00:28:55.400000000
        NUMBER_OF_FRAMES: 5
        NUMBER_OF_BYTES : 624
        _STATISTICS_WRITING_APP: mkvmerge v66.0.0 ('Josie') 64-bit
        _STATISTICS_WRITING_DATE_UTC: 2024-12-27 07:34:52
        _STATISTICS_TAGS: BPS DURATION NUMBER_OF_FRAMES NUMBER_OF_BYTES
  Stream #1:3(rus): Subtitle: ass (ssa)
      Metadata:
        title           : Субтитры
        BPS             : 114
        DURATION        : 00:28:55.400000000
        NUMBER_OF_FRAMES: 366
        NUMBER_OF_BYTES : 24797
        _STATISTICS_WRITING_APP: mkvmerge v66.0.0 ('Josie') 64-bit
        _STATISTICS_WRITING_DATE_UTC: 2024-12-27 07:34:52
        _STATISTICS_TAGS: BPS DURATION NUMBER_OF_FRAMES NUMBER_OF_BYTES
Stream mapping:
  Stream #0:0 (hevc) -> settb:default
  Stream #1:0 (h264) -> settb:default
  ssim:default -> Stream #0:0 (wrapped_avframe)
  Stream #0:1 -> #0:1 (aac (native) -> pcm_s16le (native))
[swscaler @ 000001208584cbc0] No accelerated colorspace conversion found from yuv420p to bgr48le.
[swscaler @ 0000012085931040] No accelerated colorspace conversion found from yuv420p to bgr48le.
[swscaler @ 0000012085b0c400] No accelerated colorspace conversion found from yuv420p to bgr48le.
[swscaler @ 0000012085ba9c80] No accelerated colorspace conversion found from yuv420p to bgr48le.
[swscaler @ 0000012085cc1840] No accelerated colorspace conversion found from yuv420p to bgr48le.
[swscaler @ 0000012085e686c0] No accelerated colorspace conversion found from yuv420p to bgr48le.
[swscaler @ 0000012085f20bc0] No accelerated colorspace conversion found from yuv420p to bgr48le.
[swscaler @ 0000012085f79040] No accelerated colorspace conversion found from yuv420p to bgr48le.
[swscaler @ 0000012085fd6040] No accelerated colorspace conversion found from yuv420p to bgr48le.
[swscaler @ 0000012086067040] No accelerated colorspace conversion found from yuv420p to bgr48le.
[swscaler @ 00000120860d1040] No accelerated colorspace conversion found from yuv420p to bgr48le.
[swscaler @ 000001208613d040] No accelerated colorspace conversion found from yuv420p to bgr48le.
[swscaler @ 000001208619c040] No accelerated colorspace conversion found from yuv420p to bgr48le.
[swscaler @ 000001208a7a2040] No accelerated colorspace conversion found from yuv420p to bgr48le.
[swscaler @ 000001208a80d040] No accelerated colorspace conversion found from yuv420p to bgr48le.
[swscaler @ 000001208a839880] No accelerated colorspace conversion found from yuv420p to bgr48le.
Output #0, null, to 'pipe:':
  Metadata:
    encoder         : Lavf61.7.100
  Stream #0:0: Video: wrapped_avframe, yuv420p10le(tv, bt709, progressive), 1280x720 [SAR 1:1 DAR 16:9], q=2-31, 200 kb/s, 23.98 fps, 23.98 tbn
      Metadata:
        encoder         : Lavc61.19.100 wrapped_avframe
  Stream #0:1(rus): Audio: pcm_s16le, 48000 Hz, stereo, s16, 1536 kb/s (default) (forced)
      Metadata:
        title           : Sedrix & Lupin & HectoR & Reni & Say & Silv
        _STATISTICS_TAGS: BPS DURATION NUMBER_OF_FRAMES NUMBER_OF_BYTES
        BPS             : 194049
        DURATION        : 00:30:02.304000000
        NUMBER_OF_FRAMES: 84484
        NUMBER_OF_BYTES : 43716945
        _STATISTICS_WRITING_APP: mkvpropedit v66.0.0 ('Josie') 64-bit
        _STATISTICS_WRITING_DATE_UTC: 2025-06-26 12:56:19
        encoder         : Lavc61.19.100 pcm_s16le
frame=   78 fps=0.0 q=-0.0 size=N/A time=00:00:03.25 bitrate=N/A speed=6.36x    frame=  171 fps=166 q=-0.0 size=N/A time=00:00:07.13 bitrate=N/A speed=6.92x    frame=  260 fps=169 q=-0.0 size=N/A time=00:00:10.84 bitrate=N/A speed=7.04x    frame=  347 fps=168 q=-0.0 size=N/A time=00:00:14.47 bitrate=N/A speed=7.02x    frame=  437 fps=170 q=-0.0 size=N/A time=00:00:18.22 bitrate=N/A speed= 7.1x    frame=  532 fps=172 q=-0.0 size=N/A time=00:00:22.18 bitrate=N/A speed=7.18x    frame=  619 fps=172 q=-0.0 size=N/A time=00:00:25.81 bitrate=N/A speed=7.15x    frame=  710 fps=172 q=-0.0 size=N/A time=00:00:29.61 bitrate=N/A speed=7.19x    frame=  798 fps=172 q=-0.0 size=N/A time=00:00:33.28 bitrate=N/A speed=7.18x    frame=  891 fps=173 q=-0.0 size=N/A time=00:00:37.16 bitrate=N/A speed=7.22x    frame=  977 fps=172 q=-0.0 size=N/A time=00:00:40.74 bitrate=N/A speed=7.19x    frame= 1067 fps=173 q=-0.0 size=N/A time=00:00:44.50 bitrate=N/A speed= 7.2x    frame= 1163 fps=174 q=-0.0 size=N/A time=00:00:48.50 bitrate=N/A speed=7.24x    frame= 1243 fps=172 q=-0.0 size=N/A time=00:00:51.84 bitrate=N/A speed=7.19x    frame= 1343 fps=174 q=-0.0 size=N/A time=00:00:56.01 bitrate=N/A speed=7.25x    frame= 1442 fps=175 q=-0.0 size=N/A time=00:01:00.14 bitrate=N/A speed=7.29x    frame= 1534 fps=175 q=-0.0 size=N/A time=00:01:03.98 bitrate=N/A speed= 7.3x    frame= 1619 fps=175 q=-0.0 size=N/A time=00:01:07.52 bitrate=N/A speed=7.29x    frame= 1715 fps=175 q=-0.0 size=N/A time=00:01:11.52 bitrate=N/A speed=7.31x    frame= 1804 fps=175 q=-0.0 size=N/A time=00:01:15.24 bitrate=N/A speed= 7.3x    frame= 1901 fps=176 q=-0.0 size=N/A time=00:01:19.28 bitrate=N/A speed=7.33x    frame= 1986 fps=175 q=-0.0 size=N/A time=00:01:22.83 bitrate=N/A speed=7.31x    frame= 2081 fps=176 q=-0.0 size=N/A time=00:01:26.79 bitrate=N/A speed=7.32x    frame= 2171 fps=175 q=-0.0 size=N/A time=00:01:30.54 bitrate=N/A speed=7.32x    frame= 2258 fps=175 q=-0.0 size=N/A time=00:01:34.17 bitrate=N/A speed=7.31x    frame= 2344 fps=175 q=-0.0 size=N/A time=00:01:37.76 bitrate=N/A speed= 7.3x    frame= 2429 fps=175 q=-0.0 size=N/A time=00:01:41.30 bitrate=N/A speed=7.28x    frame= 2519 fps=175 q=-0.0 size=N/A time=00:01:45.06 bitrate=N/A speed=7.28x    frame= 2612 fps=175 q=-0.0 size=N/A time=00:01:48.94 bitrate=N/A speed=7.29x    frame= 2700 fps=175 q=-0.0 size=N/A time=00:01:52.61 bitrate=N/A speed=7.28x    frame= 2788 fps=174 q=-0.0 size=N/A time=00:01:56.28 bitrate=N/A speed=7.27x    frame= 2888 fps=175 q=-0.0 size=N/A time=00:02:00.45 bitrate=N/A speed=7.29x    frame= 2968 fps=174 q=-0.0 size=N/A time=00:02:03.79 bitrate=N/A speed=7.27x    frame= 3055 fps=174 q=-0.0 size=N/A time=00:02:07.41 bitrate=N/A speed=7.27x    frame= 3141 fps=174 q=-0.0 size=N/A time=00:02:11.00 bitrate=N/A speed=7.26x    frame= 3228 fps=174 q=-0.0 size=N/A time=00:02:14.63 bitrate=N/A speed=7.25x    frame= 3321 fps=174 q=-0.0 size=N/A time=00:02:18.51 bitrate=N/A speed=7.26x    frame= 3416 fps=174 q=-0.0 size=N/A time=00:02:22.47 bitrate=N/A speed=7.27x    frame= 3507 fps=174 q=-0.0 size=N/A time=00:02:26.27 bitrate=N/A speed=7.27x    frame= 3598 fps=174 q=-0.0 size=N/A time=00:02:30.06 bitrate=N/A speed=7.27x    frame= 3695 fps=175 q=-0.0 size=N/A time=00:02:34.11 bitrate=N/A speed=7.29x    frame= 3785 fps=175 q=-0.0 size=N/A time=00:02:37.86 bitrate=N/A speed=7.29x    frame= 3872 fps=175 q=-0.0 size=N/A time=00:02:41.49 bitrate=N/A speed=7.28x    frame= 3958 fps=174 q=-0.0 size=N/A time=00:02:45.08 bitrate=N/A speed=7.27x    frame= 4046 fps=174 q=-0.0 size=N/A time=00:02:48.75 bitrate=N/A speed=7.27x    frame= 4132 fps=174 q=-0.0 size=N/A time=00:02:52.33 bitrate=N/A speed=7.26x    frame= 4211 fps=174 q=-0.0 size=N/A time=00:02:55.63 bitrate=N/A speed=7.24x    frame= 4298 fps=174 q=-0.0 size=N/A time=00:02:59.26 bitrate=N/A speed=7.24x    frame= 4380 fps=173 q=-0.0 size=N/A time=00:03:02.68 bitrate=N/A speed=7.23x    frame= 4476 fps=174 q=-0.0 size=N/A time=00:03:06.68 bitrate=N/A speed=7.24x    frame= 4566 fps=174 q=-0.0 size=N/A time=00:03:10.44 bitrate=N/A speed=7.24x    frame= 4655 fps=174 q=-0.0 size=N/A time=00:03:14.15 bitrate=N/A speed=7.24x    frame= 4743 fps=174 q=-0.0 size=N/A time=00:03:17.82 bitrate=N/A speed=7.24x    frame= 4827 fps=173 q=-0.0 size=N/A time=00:03:21.32 bitrate=N/A speed=7.23x    frame= 4920 fps=173 q=-0.0 size=N/A time=00:03:25.20 bitrate=N/A speed=7.24x    frame= 5013 fps=174 q=-0.0 size=N/A time=00:03:29.08 bitrate=N/A speed=7.24x    frame= 5102 fps=174 q=-0.0 size=N/A time=00:03:32.79 bitrate=N/A speed=7.24x    frame= 5179 fps=173 q=-0.0 size=N/A time=00:03:36.00 bitrate=N/A speed=7.22x    frame= 5275 fps=173 q=-0.0 size=N/A time=00:03:40.01 bitrate=N/A speed=7.23x    frame= 5371 fps=174 q=-0.0 size=N/A time=00:03:44.01 bitrate=N/A speed=7.24x    frame= 5459 fps=173 q=-0.0 size=N/A time=00:03:47.68 bitrate=N/A speed=7.24x    frame= 5545 fps=173 q=-0.0 size=N/A time=00:03:51.27 bitrate=N/A speed=7.23x    frame= 5636 fps=173 q=-0.0 size=N/A time=00:03:55.06 bitrate=N/A speed=7.23x    frame= 5725 fps=173 q=-0.0 size=N/A time=00:03:58.78 bitrate=N/A speed=7.23x    frame= 5815 fps=173 q=-0.0 size=N/A time=00:04:02.53 bitrate=N/A speed=7.23x    frame= 5897 fps=173 q=-0.0 size=N/A time=00:04:05.95 bitrate=N/A speed=7.22x    frame= 5990 fps=173 q=-0.0 size=N/A time=00:04:09.83 bitrate=N/A speed=7.23x    frame= 6076 fps=173 q=-0.0 size=N/A time=00:04:13.41 bitrate=N/A speed=7.22x    frame= 6165 fps=173 q=-0.0 size=N/A time=00:04:17.13 bitrate=N/A speed=7.22x    frame= 6251 fps=173 q=-0.0 size=N/A time=00:04:20.71 bitrate=N/A speed=7.22x    frame= 6346 fps=173 q=-0.0 size=N/A time=00:04:24.68 bitrate=N/A speed=7.22x    frame= 6434 fps=173 q=-0.0 size=N/A time=00:04:28.35 bitrate=N/A speed=7.22x    frame= 6520 fps=173 q=-0.0 size=N/A time=00:04:31.93 bitrate=N/A speed=7.22x    frame= 6607 fps=173 q=-0.0 size=N/A time=00:04:35.56 bitrate=N/A speed=7.22x    frame= 6701 fps=173 q=-0.0 size=N/A time=00:04:39.48 bitrate=N/A speed=7.22x    frame= 6783 fps=173 q=-0.0 size=N/A time=00:04:42.90 bitrate=N/A speed=7.22x    frame= 6880 fps=173 q=-0.0 size=N/A time=00:04:46.95 bitrate=N/A speed=7.22x    frame= 6969 fps=173 q=-0.0 size=N/A time=00:04:50.66 bitrate=N/A speed=7.22x    frame= 7044 fps=173 q=-0.0 size=N/A time=00:04:53.79 bitrate=N/A speed=7.21x    frame= 7147 fps=173 q=-0.0 size=N/A time=00:04:58.08 bitrate=N/A speed=7.22x    frame= 7228 fps=173 q=-0.0 size=N/A time=00:05:01.46 bitrate=N/A speed=7.22x    frame= 7328 fps=173 q=-0.0 size=N/A time=00:05:05.63 bitrate=N/A speed=7.22x    frame= 7417 fps=173 q=-0.0 size=N/A time=00:05:09.35 bitrate=N/A speed=7.23x    frame= 7514 fps=173 q=-0.0 size=N/A time=00:05:13.39 bitrate=N/A speed=7.23x    frame= 7599 fps=173 q=-0.0 size=N/A time=00:05:16.94 bitrate=N/A speed=7.23x    frame= 7685 fps=173 q=-0.0 size=N/A time=00:05:20.52 bitrate=N/A speed=7.23x    frame= 7773 fps=173 q=-0.0 size=N/A time=00:05:24.19 bitrate=N/A speed=7.22x    frame= 7868 fps=173 q=-0.0 size=N/A time=00:05:28.16 bitrate=N/A speed=7.23x    frame= 7963 fps=173 q=-0.0 size=N/A time=00:05:32.12 bitrate=N/A speed=7.23x    frame= 8047 fps=173 q=-0.0 size=N/A time=00:05:35.62 bitrate=N/A speed=7.23x    frame= 8138 fps=173 q=-0.0 size=N/A time=00:05:39.42 bitrate=N/A speed=7.23x    frame= 8230 fps=173 q=-0.0 size=N/A time=00:05:43.25 bitrate=N/A speed=7.23x    frame= 8319 fps=173 q=-0.0 size=N/A time=00:05:46.97 bitrate=N/A speed=7.23x    frame= 8406 fps=173 q=-0.0 size=N/A time=00:05:50.60 bitrate=N/A speed=7.23x    frame= 8492 fps=173 q=-0.0 size=N/A time=00:05:54.18 bitrate=N/A speed=7.23x    frame= 8586 fps=173 q=-0.0 size=N/A time=00:05:58.10 bitrate=N/A speed=7.23x    frame= 8681 fps=173 q=-0.0 size=N/A time=00:06:02.07 bitrate=N/A speed=7.24x    frame= 8768 fps=173 q=-0.0 size=N/A time=00:06:05.69 bitrate=N/A speed=7.23x    frame= 8862 fps=173 q=-0.0 size=N/A time=00:06:09.61 bitrate=N/A speed=7.24x    frame= 8949 fps=173 q=-0.0 size=N/A time=00:06:13.24 bitrate=N/A speed=7.24x    frame= 9035 fps=173 q=-0.0 size=N/A time=00:06:16.83 bitrate=N/A speed=7.23x    frame= 9121 fps=173 q=-0.0 size=N/A time=00:06:20.42 bitrate=N/A speed=7.23x    frame= 9213 fps=173 q=-0.0 size=N/A time=00:06:24.25 bitrate=N/A speed=7.23x    frame= 9296 fps=173 q=-0.0 size=N/A time=00:06:27.72 bitrate=N/A speed=7.23x    frame= 9384 fps=173 q=-0.0 size=N/A time=00:06:31.39 bitrate=N/A speed=7.23x    frame= 9471 fps=173 q=-0.0 size=N/A time=00:06:35.01 bitrate=N/A speed=7.22x    frame= 9560 fps=173 q=-0.0 size=N/A time=00:06:38.73 bitrate=N/A speed=7.22x    frame= 9649 fps=173 q=-0.0 size=N/A time=00:06:42.44 bitrate=N/A speed=7.22x    frame= 9739 fps=173 q=-0.0 size=N/A time=00:06:46.19 bitrate=N/A speed=7.22x    frame= 9819 fps=173 q=-0.0 size=N/A time=00:06:49.53 bitrate=N/A speed=7.22x    frame= 9924 fps=173 q=-0.0 size=N/A time=00:06:53.91 bitrate=N/A speed=7.23x    frame=10012 fps=173 q=-0.0 size=N/A time=00:06:57.58 bitrate=N/A speed=7.23x    frame=10094 fps=173 q=-0.0 size=N/A time=00:07:01.00 bitrate=N/A speed=7.22x    frame=10194 fps=173 q=-0.0 size=N/A time=00:07:05.17 bitrate=N/A speed=7.23x    frame=10285 fps=173 q=-0.0 size=N/A time=00:07:08.97 bitrate=N/A speed=7.23x    frame=10382 fps=174 q=-0.0 size=N/A time=00:07:13.01 bitrate=N/A speed=7.24x    frame=10471 fps=173 q=-0.0 size=N/A time=00:07:16.72 bitrate=N/A speed=7.24x    frame=10559 fps=173 q=-0.0 size=N/A time=00:07:20.39 bitrate=N/A speed=7.24x    frame=10654 fps=174 q=-0.0 size=N/A time=00:07:24.36 bitrate=N/A speed=7.24x    frame=10737 fps=173 q=-0.0 size=N/A time=00:07:27.82 bitrate=N/A speed=7.23x    frame=10828 fps=173 q=-0.0 size=N/A time=00:07:31.61 bitrate=N/A speed=7.24x    frame=10927 fps=174 q=-0.0 size=N/A time=00:07:35.74 bitrate=N/A speed=7.24x    frame=11013 fps=174 q=-0.0 size=N/A time=00:07:39.33 bitrate=N/A speed=7.24x    frame=11098 fps=174 q=-0.0 size=N/A time=00:07:42.87 bitrate=N/A speed=7.24x    frame=11185 fps=173 q=-0.0 size=N/A time=00:07:46.50 bitrate=N/A speed=7.24x    frame=11279 fps=174 q=-0.0 size=N/A time=00:07:50.42 bitrate=N/A speed=7.24x    frame=11371 fps=174 q=-0.0 size=N/A time=00:07:54.26 bitrate=N/A speed=7.24x    frame=11460 fps=174 q=-0.0 size=N/A time=00:07:57.97 bitrate=N/A speed=7.24x    frame=11554 fps=174 q=-0.0 size=N/A time=00:08:01.89 bitrate=N/A speed=7.24x    frame=11652 fps=174 q=-0.0 size=N/A time=00:08:05.98 bitrate=N/A speed=7.25x    frame=11745 fps=174 q=-0.0 size=N/A time=00:08:09.86 bitrate=N/A speed=7.25x    frame=11837 fps=174 q=-0.0 size=N/A time=00:08:13.70 bitrate=N/A speed=7.25x    frame=11931 fps=174 q=-0.0 size=N/A time=00:08:17.62 bitrate=N/A speed=7.25x    frame=12019 fps=174 q=-0.0 size=N/A time=00:08:21.29 bitrate=N/A speed=7.25x    frame=12115 fps=174 q=-0.0 size=N/A time=00:08:25.29 bitrate=N/A speed=7.26x    frame=12204 fps=174 q=-0.0 size=N/A time=00:08:29.00 bitrate=N/A speed=7.25x    frame=12299 fps=174 q=-0.0 size=N/A time=00:08:32.97 bitrate=N/A speed=7.26x    frame=12381 fps=174 q=-0.0 size=N/A time=00:08:36.39 bitrate=N/A speed=7.25x    frame=12476 fps=174 q=-0.0 size=N/A time=00:08:40.35 bitrate=N/A speed=7.26x    frame=12569 fps=174 q=-0.0 size=N/A time=00:08:44.23 bitrate=N/A speed=7.26x    frame=12661 fps=174 q=-0.0 size=N/A time=00:08:48.06 bitrate=N/A speed=7.26x    frame=12753 fps=174 q=-0.0 size=N/A time=00:08:51.90 bitrate=N/A speed=7.26x    frame=12827 fps=174 q=-0.0 size=N/A time=00:08:54.99 bitrate=N/A speed=7.25x    frame=12923 fps=174 q=-0.0 size=N/A time=00:08:58.99 bitrate=N/A speed=7.25x    frame=13015 fps=174 q=-0.0 size=N/A time=00:09:02.83 bitrate=N/A speed=7.26x    frame=13103 fps=174 q=-0.0 size=N/A time=00:09:06.50 bitrate=N/A speed=7.26x    frame=13184 fps=174 q=-0.0 size=N/A time=00:09:09.88 bitrate=N/A speed=7.25x    frame=13274 fps=174 q=-0.0 size=N/A time=00:09:13.63 bitrate=N/A speed=7.25x    frame=13366 fps=174 q=-0.0 size=N/A time=00:09:17.47 bitrate=N/A speed=7.25x    frame=13447 fps=174 q=-0.0 size=N/A time=00:09:20.85 bitrate=N/A speed=7.25x    frame=13536 fps=174 q=-0.0 size=N/A time=00:09:24.56 bitrate=N/A speed=7.25x    frame=13623 fps=174 q=-0.0 size=N/A time=00:09:28.19 bitrate=N/A speed=7.24x    frame=13714 fps=174 q=-0.0 size=N/A time=00:09:31.98 bitrate=N/A speed=7.25x    frame=13801 fps=174 q=-0.0 size=N/A time=00:09:35.61 bitrate=N/A speed=7.24x    frame=13900 fps=174 q=-0.0 size=N/A time=00:09:39.74 bitrate=N/A speed=7.25x    frame=13992 fps=174 q=-0.0 size=N/A time=00:09:43.58 bitrate=N/A speed=7.25x    frame=14081 fps=174 q=-0.0 size=N/A time=00:09:47.29 bitrate=N/A speed=7.25x    frame=14158 fps=174 q=-0.0 size=N/A time=00:09:50.50 bitrate=N/A speed=7.24x    frame=14253 fps=174 q=-0.0 size=N/A time=00:09:54.46 bitrate=N/A speed=7.25x    frame=14347 fps=174 q=-0.0 size=N/A time=00:09:58.38 bitrate=N/A speed=7.25x    frame=14437 fps=174 q=-0.0 size=N/A time=00:10:02.14 bitrate=N/A speed=7.25x    frame=14522 fps=174 q=-0.0 size=N/A time=00:10:05.68 bitrate=N/A speed=7.25x    frame=14608 fps=174 q=-0.0 size=N/A time=00:10:09.27 bitrate=N/A speed=7.24x    frame=14694 fps=174 q=-0.0 size=N/A time=00:10:12.86 bitrate=N/A speed=7.24x    frame=14778 fps=174 q=-0.0 size=N/A time=00:10:16.36 bitrate=N/A speed=7.24x    frame=14862 fps=174 q=-0.0 size=N/A time=00:10:19.86 bitrate=N/A speed=7.24x    frame=14946 fps=173 q=-0.0 size=N/A time=00:10:23.37 bitrate=N/A speed=7.24x    frame=15035 fps=173 q=-0.0 size=N/A time=00:10:27.08 bitrate=N/A speed=7.23x    frame=15123 fps=173 q=-0.0 size=N/A time=00:10:30.75 bitrate=N/A speed=7.23x    frame=15209 fps=173 q=-0.0 size=N/A time=00:10:34.34 bitrate=N/A speed=7.23x    frame=15296 fps=173 q=-0.0 size=N/A time=00:10:37.97 bitrate=N/A speed=7.23x    frame=15386 fps=173 q=-0.0 size=N/A time=00:10:41.72 bitrate=N/A speed=7.23x    frame=15467 fps=173 q=-0.0 size=N/A time=00:10:45.10 bitrate=N/A speed=7.23x    frame=15563 fps=173 q=-0.0 size=N/A time=00:10:49.10 bitrate=N/A speed=7.23x    frame=15651 fps=173 q=-0.0 size=N/A time=00:10:52.77 bitrate=N/A speed=7.23x    frame=15745 fps=173 q=-0.0 size=N/A time=00:10:56.69 bitrate=N/A speed=7.23x    frame=15834 fps=173 q=-0.0 size=N/A time=00:11:00.40 bitrate=N/A speed=7.23x    frame=15923 fps=173 q=-0.0 size=N/A time=00:11:04.12 bitrate=N/A speed=7.23x    frame=16016 fps=173 q=-0.0 size=N/A time=00:11:08.00 bitrate=N/A speed=7.23x    frame=16112 fps=173 q=-0.0 size=N/A time=00:11:12.00 bitrate=N/A speed=7.23x    frame=16200 fps=173 q=-0.0 size=N/A time=00:11:15.67 bitrate=N/A speed=7.23x    frame=16291 fps=173 q=-0.0 size=N/A time=00:11:19.47 bitrate=N/A speed=7.23x    frame=16381 fps=173 q=-0.0 size=N/A time=00:11:23.22 bitrate=N/A speed=7.23x    frame=16470 fps=173 q=-0.0 size=N/A time=00:11:26.93 bitrate=N/A speed=7.23x    frame=16563 fps=173 q=-0.0 size=N/A time=00:11:30.81 bitrate=N/A speed=7.24x    frame=16647 fps=173 q=-0.0 size=N/A time=00:11:34.31 bitrate=N/A speed=7.23x    frame=16733 fps=173 q=-0.0 size=N/A time=00:11:37.90 bitrate=N/A speed=7.23x    frame=16818 fps=173 q=-0.0 size=N/A time=00:11:41.45 bitrate=N/A speed=7.23x    frame=16909 fps=173 q=-0.0 size=N/A time=00:11:45.24 bitrate=N/A speed=7.23x    frame=16996 fps=173 q=-0.0 size=N/A time=00:11:48.87 bitrate=N/A speed=7.23x    frame=17088 fps=173 q=-0.0 size=N/A time=00:11:52.71 bitrate=N/A speed=7.23x    frame=17185 fps=173 q=-0.0 size=N/A time=00:11:56.75 bitrate=N/A speed=7.23x    frame=17274 fps=173 q=-0.0 size=N/A time=00:12:00.46 bitrate=N/A speed=7.23x    frame=17364 fps=173 q=-0.0 size=N/A time=00:12:04.22 bitrate=N/A speed=7.23x    frame=17455 fps=173 q=-0.0 size=N/A time=00:12:08.01 bitrate=N/A speed=7.24x    frame=17551 fps=174 q=-0.0 size=N/A time=00:12:12.02 bitrate=N/A speed=7.24x    frame=17642 fps=174 q=-0.0 size=N/A time=00:12:15.81 bitrate=N/A speed=7.24x    frame=17730 fps=174 q=-0.0 size=N/A time=00:12:19.48 bitrate=N/A speed=7.24x    frame=17820 fps=174 q=-0.0 size=N/A time=00:12:23.24 bitrate=N/A speed=7.24x    frame=17909 fps=174 q=-0.0 size=N/A time=00:12:26.95 bitrate=N/A speed=7.24x    frame=17985 fps=173 q=-0.0 size=N/A time=00:12:30.12 bitrate=N/A speed=7.23x    frame=18083 fps=173 q=-0.0 size=N/A time=00:12:34.21 bitrate=N/A speed=7.24x    frame=18169 fps=173 q=-0.0 size=N/A time=00:12:37.79 bitrate=N/A speed=7.24x    frame=18257 fps=173 q=-0.0 size=N/A time=00:12:41.46 bitrate=N/A speed=7.23x    frame=18348 fps=173 q=-0.0 size=N/A time=00:12:45.26 bitrate=N/A speed=7.23x    frame=18443 fps=174 q=-0.0 size=N/A time=00:12:49.22 bitrate=N/A speed=7.24x    frame=18533 fps=174 q=-0.0 size=N/A time=00:12:52.98 bitrate=N/A speed=7.24x    frame=18614 fps=173 q=-0.0 size=N/A time=00:12:56.35 bitrate=N/A speed=7.23x    frame=18709 fps=173 q=-0.0 size=N/A time=00:13:00.32 bitrate=N/A speed=7.24x    frame=18798 fps=173 q=-0.0 size=N/A time=00:13:04.03 bitrate=N/A speed=7.23x    frame=18878 fps=173 q=-0.0 size=N/A time=00:13:07.36 bitrate=N/A speed=7.23x    frame=18976 fps=173 q=-0.0 size=N/A time=00:13:11.45 bitrate=N/A speed=7.23x    frame=19064 fps=173 q=-0.0 size=N/A time=00:13:15.12 bitrate=N/A speed=7.23x    frame=19163 fps=174 q=-0.0 size=N/A time=00:13:19.25 bitrate=N/A speed=7.24x    frame=19255 fps=174 q=-0.0 size=N/A time=00:13:23.09 bitrate=N/A speed=7.24x    frame=19352 fps=174 q=-0.0 size=N/A time=00:13:27.13 bitrate=N/A speed=7.24x    frame=19443 fps=174 q=-0.0 size=N/A time=00:13:30.93 bitrate=N/A speed=7.24x    frame=19530 fps=174 q=-0.0 size=N/A time=00:13:34.56 bitrate=N/A speed=7.24x    frame=19621 fps=174 q=-0.0 size=N/A time=00:13:38.35 bitrate=N/A speed=7.24x    frame=19709 fps=174 q=-0.0 size=N/A time=00:13:42.02 bitrate=N/A speed=7.24x    frame=19794 fps=174 q=-0.0 size=N/A time=00:13:45.57 bitrate=N/A speed=7.24x    frame=19883 fps=174 q=-0.0 size=N/A time=00:13:49.28 bitrate=N/A speed=7.24x    frame=19972 fps=174 q=-0.0 size=N/A time=00:13:52.99 bitrate=N/A speed=7.24x    frame=20061 fps=174 q=-0.0 size=N/A time=00:13:56.71 bitrate=N/A speed=7.24x    frame=20147 fps=174 q=-0.0 size=N/A time=00:14:00.29 bitrate=N/A speed=7.24x    frame=20241 fps=174 q=-0.0 size=N/A time=00:14:04.21 bitrate=N/A speed=7.24x    frame=20333 fps=174 q=-0.0 size=N/A time=00:14:08.05 bitrate=N/A speed=7.24x    frame=20431 fps=174 q=-0.0 size=N/A time=00:14:12.14 bitrate=N/A speed=7.24x    frame=20513 fps=174 q=-0.0 size=N/A time=00:14:15.56 bitrate=N/A speed=7.24x    frame=20610 fps=174 q=-0.0 size=N/A time=00:14:19.60 bitrate=N/A speed=7.24x    frame=20698 fps=174 q=-0.0 size=N/A time=00:14:23.27 bitrate=N/A speed=7.24x    frame=20796 fps=174 q=-0.0 size=N/A time=00:14:27.36 bitrate=N/A speed=7.25x    frame=20887 fps=174 q=-0.0 size=N/A time=00:14:31.16 bitrate=N/A speed=7.25x    frame=20980 fps=174 q=-0.0 size=N/A time=00:14:35.04 bitrate=N/A speed=7.25x    frame=21074 fps=174 q=-0.0 size=N/A time=00:14:38.96 bitrate=N/A speed=7.25x    frame=21161 fps=174 q=-0.0 size=N/A time=00:14:42.59 bitrate=N/A speed=7.25x    frame=21254 fps=174 q=-0.0 size=N/A time=00:14:46.46 bitrate=N/A speed=7.25x    frame=21348 fps=174 q=-0.0 size=N/A time=00:14:50.38 bitrate=N/A speed=7.25x    frame=21439 fps=174 q=-0.0 size=N/A time=00:14:54.18 bitrate=N/A speed=7.25x    frame=21529 fps=174 q=-0.0 size=N/A time=00:14:57.93 bitrate=N/A speed=7.25x    frame=21616 fps=174 q=-0.0 size=N/A time=00:15:01.56 bitrate=N/A speed=7.25x    frame=21705 fps=174 q=-0.0 size=N/A time=00:15:05.27 bitrate=N/A speed=7.25x    frame=21794 fps=174 q=-0.0 size=N/A time=00:15:08.99 bitrate=N/A speed=7.25x    frame=21880 fps=174 q=-0.0 size=N/A time=00:15:12.57 bitrate=N/A speed=7.25x    frame=21983 fps=174 q=-0.0 size=N/A time=00:15:16.87 bitrate=N/A speed=7.25x    frame=22078 fps=174 q=-0.0 size=N/A time=00:15:20.83 bitrate=N/A speed=7.26x    frame=22166 fps=174 q=-0.0 size=N/A time=00:15:24.50 bitrate=N/A speed=7.25x    frame=22265 fps=174 q=-0.0 size=N/A time=00:15:28.63 bitrate=N/A speed=7.26x    frame=22353 fps=174 q=-0.0 size=N/A time=00:15:32.30 bitrate=N/A speed=7.26x    frame=22446 fps=174 q=-0.0 size=N/A time=00:15:36.18 bitrate=N/A speed=7.26x    frame=22535 fps=174 q=-0.0 size=N/A time=00:15:39.89 bitrate=N/A speed=7.26x    frame=22624 fps=174 q=-0.0 size=N/A time=00:15:43.60 bitrate=N/A speed=7.26x    frame=22719 fps=174 q=-0.0 size=N/A time=00:15:47.57 bitrate=N/A speed=7.26x    frame=22812 fps=174 q=-0.0 size=N/A time=00:15:51.45 bitrate=N/A speed=7.26x    frame=22905 fps=174 q=-0.0 size=N/A time=00:15:55.32 bitrate=N/A speed=7.26x    frame=22990 fps=174 q=-0.0 size=N/A time=00:15:58.87 bitrate=N/A speed=7.26x    frame=23083 fps=174 q=-0.0 size=N/A time=00:16:02.75 bitrate=N/A speed=7.26x    frame=23163 fps=174 q=-0.0 size=N/A time=00:16:06.09 bitrate=N/A speed=7.26x    frame=23258 fps=174 q=-0.0 size=N/A time=00:16:10.05 bitrate=N/A speed=7.26x    frame=23344 fps=174 q=-0.0 size=N/A time=00:16:13.63 bitrate=N/A speed=7.26x    frame=23430 fps=174 q=-0.0 size=N/A time=00:16:17.22 bitrate=N/A speed=7.26x    frame=23509 fps=174 q=-0.0 size=N/A time=00:16:20.52 bitrate=N/A speed=7.25x    frame=23592 fps=174 q=-0.0 size=N/A time=00:16:23.98 bitrate=N/A speed=7.25x    frame=23669 fps=174 q=-0.0 size=N/A time=00:16:27.19 bitrate=N/A speed=7.25x    frame=23759 fps=174 q=-0.0 size=N/A time=00:16:30.94 bitrate=N/A speed=7.25x    frame=23840 fps=174 q=-0.0 size=N/A time=00:16:34.32 bitrate=N/A speed=7.24x    frame=23921 fps=174 q=-0.0 size=N/A time=00:16:37.70 bitrate=N/A speed=7.24x    frame=23998 fps=174 q=-0.0 size=N/A time=00:16:40.91 bitrate=N/A speed=7.24x    frame=24084 fps=174 q=-0.0 size=N/A time=00:16:44.50 bitrate=N/A speed=7.24x    frame=24162 fps=173 q=-0.0 size=N/A time=00:16:47.75 bitrate=N/A speed=7.23x    frame=24243 fps=173 q=-0.0 size=N/A time=00:16:51.13 bitrate=N/A speed=7.23x    frame=24324 fps=173 q=-0.0 size=N/A time=00:16:54.51 bitrate=N/A speed=7.23x    frame=24416 fps=173 q=-0.0 size=N/A time=00:16:58.35 bitrate=N/A speed=7.23x    frame=24492 fps=173 q=-0.0 size=N/A time=00:17:01.52 bitrate=N/A speed=7.23x    frame=24580 fps=173 q=-0.0 size=N/A time=00:17:05.19 bitrate=N/A speed=7.23x    frame=24673 fps=173 q=-0.0 size=N/A time=00:17:09.06 bitrate=N/A speed=7.23x    frame=24754 fps=173 q=-0.0 size=N/A time=00:17:12.44 bitrate=N/A speed=7.22x    frame=24833 fps=173 q=-0.0 size=N/A time=00:17:15.74 bitrate=N/A speed=7.22x    frame=24923 fps=173 q=-0.0 size=N/A time=00:17:19.49 bitrate=N/A speed=7.22x    frame=25011 fps=173 q=-0.0 size=N/A time=00:17:23.16 bitrate=N/A speed=7.22x    frame=25100 fps=173 q=-0.0 size=N/A time=00:17:26.87 bitrate=N/A speed=7.22x    frame=25189 fps=173 q=-0.0 size=N/A time=00:17:30.59 bitrate=N/A speed=7.22x    frame=25281 fps=173 q=-0.0 size=N/A time=00:17:34.42 bitrate=N/A speed=7.22x    frame=25375 fps=173 q=-0.0 size=N/A time=00:17:38.34 bitrate=N/A speed=7.22x    frame=25472 fps=173 q=-0.0 size=N/A time=00:17:42.39 bitrate=N/A speed=7.22x    frame=25561 fps=173 q=-0.0 size=N/A time=00:17:46.10 bitrate=N/A speed=7.22x    frame=25646 fps=173 q=-0.0 size=N/A time=00:17:49.65 bitrate=N/A speed=7.22x    frame=25733 fps=173 q=-0.0 size=N/A time=00:17:53.28 bitrate=N/A speed=7.22x    frame=25823 fps=173 q=-0.0 size=N/A time=00:17:57.03 bitrate=N/A speed=7.22x    frame=25902 fps=173 q=-0.0 size=N/A time=00:18:00.32 bitrate=N/A speed=7.22x    frame=25998 fps=173 q=-0.0 size=N/A time=00:18:04.33 bitrate=N/A speed=7.22x    frame=26088 fps=173 q=-0.0 size=N/A time=00:18:08.08 bitrate=N/A speed=7.22x    frame=26180 fps=173 q=-0.0 size=N/A time=00:18:11.92 bitrate=N/A speed=7.22x    frame=26264 fps=173 q=-0.0 size=N/A time=00:18:15.42 bitrate=N/A speed=7.22x    frame=26356 fps=173 q=-0.0 size=N/A time=00:18:19.26 bitrate=N/A speed=7.22x    frame=26444 fps=173 q=-0.0 size=N/A time=00:18:22.93 bitrate=N/A speed=7.22x    frame=26525 fps=173 q=-0.0 size=N/A time=00:18:26.31 bitrate=N/A speed=7.22x    frame=26624 fps=173 q=-0.0 size=N/A time=00:18:30.44 bitrate=N/A speed=7.22x    frame=26709 fps=173 q=-0.0 size=N/A time=00:18:33.98 bitrate=N/A speed=7.22x    frame=26797 fps=173 q=-0.0 size=N/A time=00:18:37.65 bitrate=N/A speed=7.22x    frame=26891 fps=173 q=-0.0 size=N/A time=00:18:41.57 bitrate=N/A speed=7.22x    frame=26979 fps=173 q=-0.0 size=N/A time=00:18:45.24 bitrate=N/A speed=7.22x    frame=27069 fps=173 q=-0.0 size=N/A time=00:18:49.00 bitrate=N/A speed=7.22x    frame=27160 fps=173 q=-0.0 size=N/A time=00:18:52.79 bitrate=N/A speed=7.22x    frame=27246 fps=173 q=-0.0 size=N/A time=00:18:56.38 bitrate=N/A speed=7.22x    frame=27328 fps=173 q=-0.0 size=N/A time=00:18:59.80 bitrate=N/A speed=7.22x    frame=27401 fps=173 q=-0.0 size=N/A time=00:19:02.85 bitrate=N/A speed=7.21x    frame=27494 fps=173 q=-0.0 size=N/A time=00:19:06.72 bitrate=N/A speed=7.21x    frame=27590 fps=173 q=-0.0 size=N/A time=00:19:10.73 bitrate=N/A speed=7.21x    frame=27682 fps=173 q=-0.0 size=N/A time=00:19:14.57 bitrate=N/A speed=7.22x    frame=27771 fps=173 q=-0.0 size=N/A time=00:19:18.28 bitrate=N/A speed=7.22x    frame=27864 fps=173 q=-0.0 size=N/A time=00:19:22.16 bitrate=N/A speed=7.22x    frame=27945 fps=173 q=-0.0 size=N/A time=00:19:25.53 bitrate=N/A speed=7.21x    frame=28026 fps=173 q=-0.0 size=N/A time=00:19:28.91 bitrate=N/A speed=7.21x    frame=28126 fps=173 q=-0.0 size=N/A time=00:19:33.08 bitrate=N/A speed=7.22x    frame=28211 fps=173 q=-0.0 size=N/A time=00:19:36.63 bitrate=N/A speed=7.21x    frame=28304 fps=173 q=-0.0 size=N/A time=00:19:40.51 bitrate=N/A speed=7.21x    frame=28390 fps=173 q=-0.0 size=N/A time=00:19:44.09 bitrate=N/A speed=7.21x    frame=28480 fps=173 q=-0.0 size=N/A time=00:19:47.85 bitrate=N/A speed=7.21x    frame=28567 fps=173 q=-0.0 size=N/A time=00:19:51.48 bitrate=N/A speed=7.21x    frame=28647 fps=173 q=-0.0 size=N/A time=00:19:54.81 bitrate=N/A speed=7.21x    frame=28733 fps=173 q=-0.0 size=N/A time=00:19:58.40 bitrate=N/A speed=7.21x    frame=28816 fps=173 q=-0.0 size=N/A time=00:20:01.86 bitrate=N/A speed=7.21x    frame=28914 fps=173 q=-0.0 size=N/A time=00:20:05.95 bitrate=N/A speed=7.21x    frame=28999 fps=173 q=-0.0 size=N/A time=00:20:09.49 bitrate=N/A speed=7.21x    frame=29085 fps=173 q=-0.0 size=N/A time=00:20:13.08 bitrate=N/A speed=7.21x    frame=29171 fps=173 q=-0.0 size=N/A time=00:20:16.67 bitrate=N/A speed=7.21x    frame=29264 fps=173 q=-0.0 size=N/A time=00:20:20.55 bitrate=N/A speed=7.21x    frame=29349 fps=173 q=-0.0 size=N/A time=00:20:24.09 bitrate=N/A speed=7.21x    frame=29442 fps=173 q=-0.0 size=N/A time=00:20:27.97 bitrate=N/A speed=7.21x    frame=29532 fps=173 q=-0.0 size=N/A time=00:20:31.73 bitrate=N/A speed=7.21x    frame=29607 fps=173 q=-0.0 size=N/A time=00:20:34.85 bitrate=N/A speed=7.21x    frame=29687 fps=173 q=-0.0 size=N/A time=00:20:38.19 bitrate=N/A speed= 7.2x    frame=29783 fps=173 q=-0.0 size=N/A time=00:20:42.19 bitrate=N/A speed=7.21x    frame=29872 fps=173 q=-0.0 size=N/A time=00:20:45.91 bitrate=N/A speed=7.21x    frame=29962 fps=173 q=-0.0 size=N/A time=00:20:49.66 bitrate=N/A speed=7.21x    frame=30048 fps=173 q=-0.0 size=N/A time=00:20:53.25 bitrate=N/A speed= 7.2x    frame=30132 fps=173 q=-0.0 size=N/A time=00:20:56.75 bitrate=N/A speed= 7.2x    frame=30221 fps=173 q=-0.0 size=N/A time=00:21:00.46 bitrate=N/A speed= 7.2x    frame=30306 fps=173 q=-0.0 size=N/A time=00:21:04.01 bitrate=N/A speed= 7.2x    frame=30389 fps=173 q=-0.0 size=N/A time=00:21:07.47 bitrate=N/A speed= 7.2x    frame=30474 fps=173 q=-0.0 size=N/A time=00:21:11.01 bitrate=N/A speed= 7.2x    frame=30563 fps=173 q=-0.0 size=N/A time=00:21:14.73 bitrate=N/A speed= 7.2x    frame=30646 fps=173 q=-0.0 size=N/A time=00:21:18.19 bitrate=N/A speed= 7.2x    frame=30737 fps=173 q=-0.0 size=N/A time=00:21:21.98 bitrate=N/A speed= 7.2x    frame=30823 fps=173 q=-0.0 size=N/A time=00:21:25.57 bitrate=N/A speed= 7.2x    frame=30913 fps=173 q=-0.0 size=N/A time=00:21:29.32 bitrate=N/A speed= 7.2x    frame=30994 fps=173 q=-0.0 size=N/A time=00:21:32.70 bitrate=N/A speed= 7.2x    frame=31084 fps=173 q=-0.0 size=N/A time=00:21:36.46 bitrate=N/A speed= 7.2x    frame=31171 fps=173 q=-0.0 size=N/A time=00:21:40.09 bitrate=N/A speed= 7.2x    frame=31253 fps=172 q=-0.0 size=N/A time=00:21:43.51 bitrate=N/A speed=7.19x    frame=31348 fps=173 q=-0.0 size=N/A time=00:21:47.47 bitrate=N/A speed= 7.2x    frame=31436 fps=173 q=-0.0 size=N/A time=00:21:51.14 bitrate=N/A speed= 7.2x    frame=31524 fps=173 q=-0.0 size=N/A time=00:21:54.81 bitrate=N/A speed= 7.2x    frame=31609 fps=172 q=-0.0 size=N/A time=00:21:58.35 bitrate=N/A speed=7.19x    frame=31690 fps=172 q=-0.0 size=N/A time=00:22:01.73 bitrate=N/A speed=7.19x    frame=31769 fps=172 q=-0.0 size=N/A time=00:22:05.03 bitrate=N/A speed=7.19x    frame=31858 fps=172 q=-0.0 size=N/A time=00:22:08.74 bitrate=N/A speed=7.19x    frame=31945 fps=172 q=-0.0 size=N/A time=00:22:12.37 bitrate=N/A speed=7.19x    frame=32026 fps=172 q=-0.0 size=N/A time=00:22:15.75 bitrate=N/A speed=7.19x    frame=32111 fps=172 q=-0.0 size=N/A time=00:22:19.29 bitrate=N/A speed=7.19x    frame=32198 fps=172 q=-0.0 size=N/A time=00:22:22.92 bitrate=N/A speed=7.19x    frame=32279 fps=172 q=-0.0 size=N/A time=00:22:26.30 bitrate=N/A speed=7.19x    frame=32371 fps=172 q=-0.0 size=N/A time=00:22:30.14 bitrate=N/A speed=7.19x    frame=32459 fps=172 q=-0.0 size=N/A time=00:22:33.81 bitrate=N/A speed=7.19x    frame=32536 fps=172 q=-0.0 size=N/A time=00:22:37.02 bitrate=N/A speed=7.18x    frame=32633 fps=172 q=-0.0 size=N/A time=00:22:41.06 bitrate=N/A speed=7.19x    frame=32714 fps=172 q=-0.0 size=N/A time=00:22:44.44 bitrate=N/A speed=7.18x    frame=32813 fps=172 q=-0.0 size=N/A time=00:22:48.57 bitrate=N/A speed=7.19x    frame=32901 fps=172 q=-0.0 size=N/A time=00:22:52.24 bitrate=N/A speed=7.19x    frame=32986 fps=172 q=-0.0 size=N/A time=00:22:55.79 bitrate=N/A speed=7.18x    frame=33075 fps=172 q=-0.0 size=N/A time=00:22:59.50 bitrate=N/A speed=7.18x    frame=33148 fps=172 q=-0.0 size=N/A time=00:23:02.54 bitrate=N/A speed=7.18x    frame=33243 fps=172 q=-0.0 size=N/A time=00:23:06.51 bitrate=N/A speed=7.18x    frame=33333 fps=172 q=-0.0 size=N/A time=00:23:10.26 bitrate=N/A speed=7.18x    frame=33420 fps=172 q=-0.0 size=N/A time=00:23:13.89 bitrate=N/A speed=7.18x    frame=33501 fps=172 q=-0.0 size=N/A time=00:23:17.27 bitrate=N/A speed=7.18x    frame=33592 fps=172 q=-0.0 size=N/A time=00:23:21.06 bitrate=N/A speed=7.18x    frame=33677 fps=172 q=-0.0 size=N/A time=00:23:24.61 bitrate=N/A speed=7.18x    frame=33761 fps=172 q=-0.0 size=N/A time=00:23:28.11 bitrate=N/A speed=7.18x    frame=33849 fps=172 q=-0.0 size=N/A time=00:23:31.78 bitrate=N/A speed=7.18x    frame=33932 fps=172 q=-0.0 size=N/A time=00:23:35.24 bitrate=N/A speed=7.18x    frame=34008 fps=172 q=-0.0 size=N/A time=00:23:38.41 bitrate=N/A speed=7.18x    frame=34091 fps=172 q=-0.0 size=N/A time=00:23:41.87 bitrate=N/A speed=7.17x    frame=34172 fps=172 q=-0.0 size=N/A time=00:23:45.25 bitrate=N/A speed=7.17x    frame=34264 fps=172 q=-0.0 size=N/A time=00:23:49.09 bitrate=N/A speed=7.17x    frame=34351 fps=172 q=-0.0 size=N/A time=00:23:52.72 bitrate=N/A speed=7.17x    frame=34436 fps=172 q=-0.0 size=N/A time=00:23:56.26 bitrate=N/A speed=7.17x    frame=34520 fps=172 q=-0.0 size=N/A time=00:23:59.77 bitrate=N/A speed=7.17x    frame=34604 fps=172 q=-0.0 size=N/A time=00:24:03.27 bitrate=N/A speed=7.17x    frame=34693 fps=172 q=-0.0 size=N/A time=00:24:06.98 bitrate=N/A speed=7.17x    frame=34778 fps=172 q=-0.0 size=N/A time=00:24:10.53 bitrate=N/A speed=7.17x    frame=34869 fps=172 q=-0.0 size=N/A time=00:24:14.32 bitrate=N/A speed=7.17x    frame=34955 fps=172 q=-0.0 size=N/A time=00:24:17.91 bitrate=N/A speed=7.17x    frame=35040 fps=172 q=-0.0 size=N/A time=00:24:21.46 bitrate=N/A speed=7.17x    frame=35127 fps=172 q=-0.0 size=N/A time=00:24:25.08 bitrate=N/A speed=7.17x    frame=35211 fps=172 q=-0.0 size=N/A time=00:24:28.59 bitrate=N/A speed=7.17x    frame=35285 fps=172 q=-0.0 size=N/A time=00:24:31.67 bitrate=N/A speed=7.16x    frame=35371 fps=172 q=-0.0 size=N/A time=00:24:35.26 bitrate=N/A speed=7.16x    frame=35466 fps=172 q=-0.0 size=N/A time=00:24:39.22 bitrate=N/A speed=7.16x    frame=35551 fps=172 q=-0.0 size=N/A time=00:24:42.77 bitrate=N/A speed=7.16x    frame=35642 fps=172 q=-0.0 size=N/A time=00:24:46.56 bitrate=N/A speed=7.16x    frame=35732 fps=172 q=-0.0 size=N/A time=00:24:50.32 bitrate=N/A speed=7.17x    frame=35818 fps=172 q=-0.0 size=N/A time=00:24:53.90 bitrate=N/A speed=7.16x    frame=35900 fps=172 q=-0.0 size=N/A time=00:24:57.32 bitrate=N/A speed=7.16x    frame=35982 fps=172 q=-0.0 size=N/A time=00:25:00.74 bitrate=N/A speed=7.16x    frame=36063 fps=172 q=-0.0 size=N/A time=00:25:04.12 bitrate=N/A speed=7.16x    frame=36152 fps=172 q=-0.0 size=N/A time=00:25:07.83 bitrate=N/A speed=7.16x    frame=36235 fps=172 q=-0.0 size=N/A time=00:25:11.30 bitrate=N/A speed=7.16x    frame=36322 fps=172 q=-0.0 size=N/A time=00:25:14.93 bitrate=N/A speed=7.16x    frame=36405 fps=172 q=-0.0 size=N/A time=00:25:18.39 bitrate=N/A speed=7.16x    frame=36497 fps=172 q=-0.0 size=N/A time=00:25:22.22 bitrate=N/A speed=7.16x    frame=36589 fps=172 q=-0.0 size=N/A time=00:25:26.06 bitrate=N/A speed=7.16x    frame=36672 fps=172 q=-0.0 size=N/A time=00:25:29.52 bitrate=N/A speed=7.16x    frame=36757 fps=172 q=-0.0 size=N/A time=00:25:33.07 bitrate=N/A speed=7.16x    frame=36842 fps=172 q=-0.0 size=N/A time=00:25:36.61 bitrate=N/A speed=7.16x    frame=36937 fps=172 q=-0.0 size=N/A time=00:25:40.58 bitrate=N/A speed=7.16x    frame=37022 fps=172 q=-0.0 size=N/A time=00:25:44.12 bitrate=N/A speed=7.16x    frame=37105 fps=172 q=-0.0 size=N/A time=00:25:47.58 bitrate=N/A speed=7.16x    frame=37193 fps=172 q=-0.0 size=N/A time=00:25:51.25 bitrate=N/A speed=7.16x    frame=37277 fps=172 q=-0.0 size=N/A time=00:25:54.76 bitrate=N/A speed=7.16x    frame=37365 fps=172 q=-0.0 size=N/A time=00:25:58.43 bitrate=N/A speed=7.16x    frame=37455 fps=172 q=-0.0 size=N/A time=00:26:02.18 bitrate=N/A speed=7.16x    frame=37542 fps=172 q=-0.0 size=N/A time=00:26:05.81 bitrate=N/A speed=7.16x    frame=37630 fps=172 q=-0.0 size=N/A time=00:26:09.48 bitrate=N/A speed=7.16x    frame=37721 fps=172 q=-0.0 size=N/A time=00:26:13.28 bitrate=N/A speed=7.16x    frame=37809 fps=172 q=-0.0 size=N/A time=00:26:16.95 bitrate=N/A speed=7.16x    frame=37893 fps=172 q=-0.0 size=N/A time=00:26:20.45 bitrate=N/A speed=7.16x    frame=37986 fps=172 q=-0.0 size=N/A time=00:26:24.33 bitrate=N/A speed=7.16x    frame=38072 fps=172 q=-0.0 size=N/A time=00:26:27.91 bitrate=N/A speed=7.16x    frame=38166 fps=172 q=-0.0 size=N/A time=00:26:31.84 bitrate=N/A speed=7.16x    frame=38257 fps=172 q=-0.0 size=N/A time=00:26:35.63 bitrate=N/A speed=7.16x    frame=38339 fps=172 q=-0.0 size=N/A time=00:26:39.05 bitrate=N/A speed=7.16x    frame=38419 fps=172 q=-0.0 size=N/A time=00:26:42.39 bitrate=N/A speed=7.15x    frame=38501 fps=171 q=-0.0 size=N/A time=00:26:45.81 bitrate=N/A speed=7.15x    frame=38587 fps=171 q=-0.0 size=N/A time=00:26:49.39 bitrate=N/A speed=7.15x    frame=38662 fps=171 q=-0.0 size=N/A time=00:26:52.52 bitrate=N/A speed=7.15x    frame=38751 fps=171 q=-0.0 size=N/A time=00:26:56.23 bitrate=N/A speed=7.15x    frame=38833 fps=171 q=-0.0 size=N/A time=00:26:59.65 bitrate=N/A speed=7.15x    frame=38919 fps=171 q=-0.0 size=N/A time=00:27:03.24 bitrate=N/A speed=7.15x    frame=39004 fps=171 q=-0.0 size=N/A time=00:27:06.79 bitrate=N/A speed=7.15x    frame=39096 fps=171 q=-0.0 size=N/A time=00:27:10.62 bitrate=N/A speed=7.15x    frame=39189 fps=171 q=-0.0 size=N/A time=00:27:14.50 bitrate=N/A speed=7.15x    frame=39281 fps=171 q=-0.0 size=N/A time=00:27:18.34 bitrate=N/A speed=7.15x    frame=39369 fps=171 q=-0.0 size=N/A time=00:27:22.01 bitrate=N/A speed=7.15x    frame=39457 fps=171 q=-0.0 size=N/A time=00:27:25.68 bitrate=N/A speed=7.15x    frame=39545 fps=171 q=-0.0 size=N/A time=00:27:29.35 bitrate=N/A speed=7.15x    frame=39642 fps=171 q=-0.0 size=N/A time=00:27:33.40 bitrate=N/A speed=7.15x    frame=39727 fps=171 q=-0.0 size=N/A time=00:27:36.94 bitrate=N/A speed=7.15x    frame=39815 fps=171 q=-0.0 size=N/A time=00:27:40.61 bitrate=N/A speed=7.15x    frame=39901 fps=171 q=-0.0 size=N/A time=00:27:44.20 bitrate=N/A speed=7.15x    frame=39988 fps=171 q=-0.0 size=N/A time=00:27:47.83 bitrate=N/A speed=7.15x    frame=40074 fps=171 q=-0.0 size=N/A time=00:27:51.41 bitrate=N/A speed=7.15x    frame=40157 fps=171 q=-0.0 size=N/A time=00:27:54.88 bitrate=N/A speed=7.15x    frame=40245 fps=171 q=-0.0 size=N/A time=00:27:58.55 bitrate=N/A speed=7.15x    frame=40331 fps=171 q=-0.0 size=N/A time=00:28:02.13 bitrate=N/A speed=7.15x    frame=40411 fps=171 q=-0.0 size=N/A time=00:28:05.47 bitrate=N/A speed=7.15x    frame=40499 fps=171 q=-0.0 size=N/A time=00:28:09.14 bitrate=N/A speed=7.15x    frame=40585 fps=171 q=-0.0 size=N/A time=00:28:12.73 bitrate=N/A speed=7.15x    frame=40669 fps=171 q=-0.0 size=N/A time=00:28:16.23 bitrate=N/A speed=7.15x    frame=40755 fps=171 q=-0.0 size=N/A time=00:28:19.82 bitrate=N/A speed=7.14x    frame=40833 fps=171 q=-0.0 size=N/A time=00:28:23.07 bitrate=N/A speed=7.14x    frame=40921 fps=171 q=-0.0 size=N/A time=00:28:26.74 bitrate=N/A speed=7.14x    frame=41012 fps=171 q=-0.0 size=N/A time=00:28:30.54 bitrate=N/A speed=7.14x    frame=41099 fps=171 q=-0.0 size=N/A time=00:28:34.17 bitrate=N/A speed=7.14x    frame=41185 fps=171 q=-0.0 size=N/A time=00:28:37.75 bitrate=N/A speed=7.14x    frame=41271 fps=171 q=-0.0 size=N/A time=00:28:41.34 bitrate=N/A speed=7.14x    frame=41357 fps=171 q=-0.0 size=N/A time=00:28:44.93 bitrate=N/A speed=7.14x    frame=41447 fps=171 q=-0.0 size=N/A time=00:28:48.68 bitrate=N/A speed=7.14x    frame=41540 fps=171 q=-0.0 size=N/A time=00:28:52.56 bitrate=N/A speed=7.14x    frame=41617 fps=171 q=-0.0 size=N/A time=00:28:55.77 bitrate=N/A speed=7.14x    frame=41703 fps=171 q=-0.0 size=N/A time=00:28:59.36 bitrate=N/A speed=7.14x    frame=41775 fps=171 q=-0.0 size=N/A time=00:29:02.36 bitrate=N/A speed=7.14x    frame=41857 fps=171 q=-0.0 size=N/A time=00:29:05.78 bitrate=N/A speed=7.14x    frame=41938 fps=171 q=-0.0 size=N/A time=00:29:09.16 bitrate=N/A speed=7.14x    frame=42023 fps=171 q=-0.0 size=N/A time=00:29:12.70 bitrate=N/A speed=7.13x    frame=42110 fps=171 q=-0.0 size=N/A time=00:29:16.33 bitrate=N/A speed=7.13x    frame=42192 fps=171 q=-0.0 size=N/A time=00:29:19.75 bitrate=N/A speed=7.13x    frame=42278 fps=171 q=-0.0 size=N/A time=00:29:23.34 bitrate=N/A speed=7.13x    frame=42370 fps=171 q=-0.0 size=N/A time=00:29:27.18 bitrate=N/A speed=7.13x    frame=42453 fps=171 q=-0.0 size=N/A time=00:29:30.64 bitrate=N/A speed=7.13x    frame=42537 fps=171 q=-0.0 size=N/A time=00:29:34.14 bitrate=N/A speed=7.13x    frame=42624 fps=171 q=-0.0 size=N/A time=00:29:37.77 bitrate=N/A speed=7.13x    frame=42712 fps=171 q=-0.0 size=N/A time=00:29:41.44 bitrate=N/A speed=7.13x    frame=42799 fps=171 q=-0.0 size=N/A time=00:29:45.07 bitrate=N/A speed=7.13x    frame=42886 fps=171 q=-0.0 size=N/A time=00:29:48.70 bitrate=N/A speed=7.13x    frame=42976 fps=171 q=-0.0 size=N/A time=00:29:52.45 bitrate=N/A speed=7.13x    frame=43065 fps=171 q=-0.0 size=N/A time=00:29:56.16 bitrate=N/A speed=7.13x    frame=43158 fps=171 q=-0.0 size=N/A time=00:30:00.04 bitrate=N/A speed=7.13x    [Parsed_ssim_10 @ 0000012084a9f240] SSIM Y:0.982621 (17.599732) U:0.984476 (18.090101) V:0.985012 (18.242498) All:0.983329 (17.780294)
[out#0/null @ 00000120f8e6e7c0] video:18568KiB audio:337936KiB subtitle:0KiB other streams:0KiB global headers:0KiB muxing overhead: unknown
frame=43213 fps=171 q=-0.0 Lsize=N/A time=00:30:02.32 bitrate=N/A speed=7.13x    
